<svg width="21" height="30" viewBox="0 0 21 30" fill="none" xmlns="http://www.w3.org/2000/svg">
<path d="M17.1332 21.7805C17.5252 21.7805 17.9731 21.8365 18.365 21.9485V5.59912H1.00781V9.96642C1.00781 9.96642 3.24745 10.3024 3.13547 17.1893L3.07948 23.7402C3.07948 23.9642 3.07948 24.1322 3.13547 24.4121C3.35944 25.5879 4.47926 28.9474 7.67075 29.1154H12.9899C12.598 28.4435 12.318 27.6036 12.318 26.7077C12.318 23.9642 14.5017 21.7805 17.1332 21.7805Z" fill="black" fill-opacity="0.5"/>
<path d="M18.477 3.07951H19.1489H19.4849V1.34379C19.4849 1.17581 19.4289 1.11982 19.2609 1.11982H14.0538V0.223964C14.0538 0.0559914 13.9978 0 13.8298 0H5.5991C5.43113 0 5.37514 0.0559914 5.37514 0.223964V1.11982H0.223964C0.0559908 1.11982 0 1.17581 0 1.34379V3.07951H0.671892H1.00784H18.477Z" fill="black" fill-opacity="0.5"/>
<path d="M18.4772 23.7962C18.0852 23.6283 17.6373 23.5723 17.2454 23.5723C15.5096 23.5723 14.1099 24.972 14.1099 26.7078C14.1099 27.6036 14.5018 28.5555 15.1737 29.1154C15.7336 29.6193 16.4055 29.8433 17.2454 29.8433C18.9811 29.8433 20.3809 28.4435 20.3809 26.7078C20.2689 25.364 19.541 24.3001 18.4772 23.7962Z" fill="black" fill-opacity="0.5"/>
</svg>
